<?xml version="1.0" encoding="UTF-8"?><svg id="a" xmlns="http://www.w3.org/2000/svg" viewBox="0 0 442.31828 50.7984"><path d="M347.19092,2.19552c-1.85488-1.01284-6.14573-2.19552-12.13211-2.19552-16.09282,0-26.90486,10.48381-26.90486,26.08762,0,15.24219,9.90845,24.71077,25.85815,24.71077,5.71779,0,10.44039-1.07009,12.58343-2.13063l.18797-.09303-1.74611-9.1809-.31392.13072c-2.23177.92935-5.8924,1.55385-9.10934,1.55385-9.58022,0-15.29992-5.84374-15.29992-15.63149,0-9.77773,5.83849-15.8519,15.23694-15.8519,4.14772,0,7.26496.98231,9.14942,1.80622l.29579.12977,2.38349-9.23243-.18892-.10305Z" fill="#fff"/><path d="M251.9921,2.19552c-1.85488-1.01284-6.14573-2.19552-12.13211-2.19552-16.09282,0-26.90486,10.48381-26.90486,26.08762,0,15.24219,9.90845,24.71077,25.85815,24.71077,5.71779,0,10.44039-1.07009,12.58343-2.13063l.18797-.09303-1.74611-9.1809-.31392.13072c-2.23177.92935-5.8924,1.55385-9.10934,1.55385-9.58022,0-15.29992-5.84374-15.29992-15.63149,0-9.77773,5.83849-15.8519,15.23694-15.8519,4.14772,0,7.26496.98231,9.14942,1.80622l.29579.12977,2.38349-9.23243-.18892-.10305Z" fill="#fff"/><polygon points="89.00376 1.19827 71.13307 21.074 71.13307 1.16496 59.28142 1.16496 59.28142 49.94681 71.13307 49.94681 71.13307 30.03772 89.00376 49.91345 104.61934 49.91345 82.71881 25.55586 104.61934 1.19827 89.00376 1.19827" fill="#fff"/><polygon points="141.71466 1.19827 123.84397 21.074 123.84397 1.16496 111.99232 1.16496 111.99232 49.94681 123.84397 49.94681 123.84397 30.03772 141.71466 49.91345 157.33024 49.91345 135.42971 25.55586 157.33024 1.19827 141.71466 1.19827" fill="#fff"/><path d="M31.26517,1.19838h-8.95253L0,49.91355h12.60188l3.04323-7.05703h22.58552l3.04323,7.05703h12.60188L31.56311,1.19838h-.29794ZM19.9779,32.80913l6.95997-16.13956,6.95997,16.13956h-13.91995Z" fill="#fff"/><path d="M191.25287,1.19838h-9.25047l-22.31263,48.71517h12.60188l3.04323-7.05703h22.58552l3.04323,7.05703h12.60188L191.25287,1.19838ZM179.66766,32.80913l6.95997-16.13956,6.95997,16.13956h-13.91995Z" fill="#fff"/><path d="M406.67789,49.94681V.91986h34.41753v10.04083h-23.20584v9.21004h21.01361v9.48697h-21.01361v10.17929h24.42869v10.10982h-35.64039Z" fill="#fff"/><path d="M286.95147,1.19838h-9.25047l-22.31263,48.71517h12.60188l3.04323-7.05703h22.58552l3.04323,7.05703h12.60188L286.95147,1.19838ZM275.36626,32.80913l6.95997-16.13956,6.95997,16.13956h-13.91995Z" fill="#fff"/><polygon points="385.87612 1.0999 385.87612 19.79375 366.06558 19.79375 366.06558 1.0999 354.88181 1.0999 354.88181 50.0291 366.06558 50.0291 366.06558 29.6577 385.87612 29.6577 385.87612 50.0291 397.05989 50.0291 397.05989 1.0999 385.87612 1.0999" fill="#fff"/></svg>