<?xml version="1.0" encoding="UTF-8"?>
<svg width="1024px" height="1024px" viewBox="0 0 1024 1024" version="1.1" xmlns="http://www.w3.org/2000/svg" xmlns:xlink="http://www.w3.org/1999/xlink">
    <title>akka-cache-logo-dark</title>
    <g id="akka-cache-logo-dark" stroke="none" stroke-width="1" fill="none" fill-rule="evenodd">
        <g id="akka-cache" transform="translate(93.000000, 140.000000)">
            <g id="node-collection">
                <g id="nodes-left">
                    <circle id="Oval" fill="#FFCE4A" cx="218" cy="491" r="21"></circle>
                    <circle id="Oval" fill="#FFCE4A" cx="318" cy="608" r="21"></circle>
                    <circle id="Oval" fill="#FFCE4A" cx="368" cy="564" r="21"></circle>
                    <path d="M119,0 C142.195959,0 161,18.8040405 161,42 C161,65.1959595 142.195959,84 119,84 C95.8040405,84 77,65.1959595 77,42 C77,18.8040405 95.8040405,0 119,0 Z M119,21 C107.40202,21 98,30.4020203 98,42 C98,53.5979797 107.40202,63 119,63 C130.59798,63 140,53.5979797 140,42 C140,30.4020203 130.59798,21 119,21 Z" id="node" fill="#FFCE4A"></path>
                    <path d="M42,145 C65.1959595,145 84,163.804041 84,187 C84,210.195959 65.1959595,229 42,229 C18.8040405,229 0,210.195959 0,187 C0,163.804041 18.8040405,145 42,145 Z M42,166 C30.4020203,166 21,175.40202 21,187 C21,198.59798 30.4020203,208 42,208 C53.5979797,208 63,198.59798 63,187 C63,175.40202 53.5979797,166 42,166 Z" id="node" fill="#FFCE4A"></path>
                    <path d="M46,295 C69.1959595,295 88,313.804041 88,337 C88,360.195959 69.1959595,379 46,379 C22.8040405,379 4,360.195959 4,337 C4,313.804041 22.8040405,295 46,295 Z M46,316 C34.4020203,316 25,325.40202 25,337 C25,348.59798 34.4020203,358 46,358 C57.5979797,358 67,348.59798 67,337 C67,325.40202 57.5979797,316 46,316 Z" id="node" fill="#FFCE4A"></path>
                    <path d="M116,449 C139.195959,449 158,467.804041 158,491 C158,514.195959 139.195959,533 116,533 C92.8040405,533 74,514.195959 74,491 C74,467.804041 92.8040405,449 116,449 Z M116,470 C104.40202,470 95,479.40202 95,491 C95,502.59798 104.40202,512 116,512 C127.59798,512 137,502.59798 137,491 C137,479.40202 127.59798,470 116,470 Z" id="node" fill="#FFCE4A"></path>
                    <path d="M214,581 C237.195959,581 256,599.804041 256,623 C256,646.195959 237.195959,665 214,665 C190.804041,665 172,646.195959 172,623 C172,599.804041 190.804041,581 214,581 Z M214,602 C202.40202,602 193,611.40202 193,623 C193,634.59798 202.40202,644 214,644 C225.59798,644 235,634.59798 235,623 C235,611.40202 225.59798,602 214,602 Z" id="node" fill="#FFCE4A"></path>
                    <line x1="80.5" y1="186.5" x2="115.5" y2="186.5" id="Line" stroke="#FFCE4A" stroke-width="32" stroke-linecap="square"></line>
                    <line x1="119" y1="84" x2="119" y2="187" id="Line" stroke="#FFCE4A" stroke-width="32" stroke-linecap="square"></line>
                    <line x1="318" y1="307" x2="318" y2="487" id="Line" stroke="#FFCE4A" stroke-width="32" stroke-linecap="square"></line>
                    <line x1="368" y1="307" x2="368" y2="543" id="Line" stroke="#FFCE4A" stroke-width="32" stroke-linecap="square"></line>
                    <line x1="152" y1="271" x2="84" y2="315" id="Line" stroke="#FFCE4A" stroke-width="32" stroke-linecap="square"></line>
                    <line x1="251" y1="309" x2="140" y2="462" id="Line" stroke="#FFCE4A" stroke-width="32" stroke-linecap="square"></line>
                    <line x1="312" y1="505" x2="239.810892" y2="593.231132" id="Line" stroke="#FFCE4A" stroke-width="32" stroke-linecap="square"></line>
                </g>
                <g id="nodes-right" transform="translate(644.500000, 332.500000) scale(-1, 1) translate(-644.500000, -332.500000) translate(450.000000, 0.000000)">
                    <circle id="Oval" fill="#FFCE4A" cx="218" cy="491" r="21"></circle>
                    <circle id="Oval" fill="#FFCE4A" cx="318" cy="608" r="21"></circle>
                    <circle id="Oval" fill="#FFCE4A" cx="368" cy="564" r="21"></circle>
                    <path d="M119,0 C142.195959,0 161,18.8040405 161,42 C161,65.1959595 142.195959,84 119,84 C95.8040405,84 77,65.1959595 77,42 C77,18.8040405 95.8040405,0 119,0 Z M119,21 C107.40202,21 98,30.4020203 98,42 C98,53.5979797 107.40202,63 119,63 C130.59798,63 140,53.5979797 140,42 C140,30.4020203 130.59798,21 119,21 Z" id="node" fill="#FFCE4A"></path>
                    <path d="M42,145 C65.1959595,145 84,163.804041 84,187 C84,210.195959 65.1959595,229 42,229 C18.8040405,229 0,210.195959 0,187 C0,163.804041 18.8040405,145 42,145 Z M42,166 C30.4020203,166 21,175.40202 21,187 C21,198.59798 30.4020203,208 42,208 C53.5979797,208 63,198.59798 63,187 C63,175.40202 53.5979797,166 42,166 Z" id="node" fill="#FFCE4A"></path>
                    <path d="M46,295 C69.1959595,295 88,313.804041 88,337 C88,360.195959 69.1959595,379 46,379 C22.8040405,379 4,360.195959 4,337 C4,313.804041 22.8040405,295 46,295 Z M46,316 C34.4020203,316 25,325.40202 25,337 C25,348.59798 34.4020203,358 46,358 C57.5979797,358 67,348.59798 67,337 C67,325.40202 57.5979797,316 46,316 Z" id="node" fill="#FFCE4A"></path>
                    <path d="M116,449 C139.195959,449 158,467.804041 158,491 C158,514.195959 139.195959,533 116,533 C92.8040405,533 74,514.195959 74,491 C74,467.804041 92.8040405,449 116,449 Z M116,470 C104.40202,470 95,479.40202 95,491 C95,502.59798 104.40202,512 116,512 C127.59798,512 137,502.59798 137,491 C137,479.40202 127.59798,470 116,470 Z" id="node" fill="#FFCE4A"></path>
                    <path d="M214,581 C237.195959,581 256,599.804041 256,623 C256,646.195959 237.195959,665 214,665 C190.804041,665 172,646.195959 172,623 C172,599.804041 190.804041,581 214,581 Z M214,602 C202.40202,602 193,611.40202 193,623 C193,634.59798 202.40202,644 214,644 C225.59798,644 235,634.59798 235,623 C235,611.40202 225.59798,602 214,602 Z" id="node" fill="#FFCE4A"></path>
                    <line x1="80.5" y1="186.5" x2="115.5" y2="186.5" id="Line" stroke="#FFCE4A" stroke-width="32" stroke-linecap="square"></line>
                    <line x1="119" y1="84" x2="119" y2="187" id="Line" stroke="#FFCE4A" stroke-width="32" stroke-linecap="square"></line>
                    <line x1="318" y1="308" x2="318" y2="486" id="Line" stroke="#FFCE4A" stroke-width="32" stroke-linecap="square"></line>
                    <line x1="368" y1="307" x2="368" y2="543" id="Line" stroke="#FFCE4A" stroke-width="32" stroke-linecap="square"></line>
                    <line x1="152" y1="271" x2="84" y2="315" id="Line" stroke="#FFCE4A" stroke-width="32" stroke-linecap="square"></line>
                    <line x1="251" y1="309" x2="140" y2="462" id="Line" stroke="#FFCE4A" stroke-width="32" stroke-linecap="square"></line>
                    <line x1="312" y1="504" x2="239.810892" y2="592.231132" id="Line" stroke="#FFCE4A" stroke-width="32" stroke-linecap="square"></line>
                </g>
            </g>
            <g id="nodes-center" transform="translate(377.000000, 307.000000)">
                <circle id="Oval" fill="#FFCE4A" cx="42" cy="432" r="21"></circle>
                <path d="M42,304 C65.1959595,304 84,322.804041 84,346 C84,369.195959 65.1959595,388 42,388 C18.8040405,388 0,369.195959 0,346 C0,322.804041 18.8040405,304 42,304 Z M42,325 C30.4020203,325 21,334.40202 21,346 C21,357.59798 30.4020203,367 42,367 C53.5979797,367 63,357.59798 63,346 C63,334.40202 53.5979797,325 42,325 Z" id="node" fill="#FFCE4A"></path>
                <line x1="41" y1="0" x2="41" y2="298" id="Line" stroke="#FFCE4A" stroke-width="32" stroke-linecap="square"></line>
            </g>
            <g id="cloud-collection" transform="translate(121.000000, 25.000000)" stroke="#ADB5BD">
                <g id="cloud" transform="translate(382.500000, 132.000000) scale(-1, 1) translate(-382.500000, -132.000000) translate(168.000000, 0.000000)">
                    <path d="M54.862995,95.865595 C54.862995,38.1286421 113.278175,28.8650401 136.610117,54.5990057 C202.697724,-37.3973028 297.51738,-1.49720408 325.37071,76.3772165 C473.22778,76.3772165 449.460094,253.237436 338.221464,264 C277.485178,264 186.545212,264 92.1086728,264 C10.3653283,264 -47.7232063,132.358457 54.862995,95.865595 Z" id="Path" stroke-width="32" fill="#F1F1F1"></path>
                    <path d="M66.8372002,206.676796 C55.2228008,197.993925 51.4939748,184.089579 55.6507222,164.96376 C61.8858433,136.275032 79.9062604,136.275032 79.9062604,136.275032" id="Path-2" stroke-width="26" stroke-linecap="round"></path>
                    <path d="M176.55676,84.1509892 C190.578372,68.0980059 207.720406,60.0715143 227.982864,60.0715143 C258.37655,60.0715143 279.408968,84.1509892 279.408968,84.1509892" id="Path-2" stroke-width="26" stroke-linecap="round"></path>
                </g>
                <g id="cloud-copy" transform="translate(0.000000, 32.000000)">
                    <path d="M54.862995,95.865595 C54.862995,38.1286421 113.278175,28.8650401 136.610117,54.5990057 C202.697724,-37.3973028 297.51738,-1.49720408 325.37071,76.3772165 C473.22778,76.3772165 449.460094,253.237436 338.221464,264 C277.485178,264 186.545212,264 92.1086728,264 C10.3653283,264 -47.7232063,132.358457 54.862995,95.865595 Z" id="Path" stroke-width="32" fill="#F1F1F1"></path>
                    <path d="M73.2401058,207.745554 C61.6257064,199.062683 57.8968804,185.158337 62.0536278,166.032518 C68.2887489,137.34379 86.309166,137.34379 86.309166,137.34379" id="Path-2" stroke-width="26" stroke-linecap="round"></path>
                    <path d="M174.422458,84.1509892 C188.44407,68.0980059 205.586105,60.0715143 225.848562,60.0715143 C256.242248,60.0715143 277.274666,84.1509892 277.274666,84.1509892" id="Path-2" stroke-width="26" stroke-linecap="round"></path>
                </g>
            </g>
        </g>
    </g>
</svg>